<svg width="40" height="40" viewBox="0 0 40 40" xmlns="http://www.w3.org/2000/svg">
  <circle cx="20" cy="20" r="20" fill="white"/>
  
  <!-- Main blue shape - flowing abstract form -->
  <path d="M8 20 C8 12, 12 8, 20 8 C28 8, 32 12, 32 20 C32 24, 30 28, 26 30 C22 32, 18 32, 14 30 C10 28, 8 24, 8 20 Z" 
        fill="#1e3a8a" stroke="#1e3a8a" stroke-width="2"/>
  
  <!-- Small blue circle (head/eye) -->
  <circle cx="12" cy="18" r="3" fill="#1e3a8a"/>
  
  <!-- Flowing curve from circle -->
  <path d="M15 18 C18 15, 22 12, 26 14 C28 16, 28 20, 26 22 C24 24, 20 26, 16 24" 
        fill="none" stroke="#1e3a8a" stroke-width="3" stroke-linecap="round"/>
  
  <!-- Notepad icon -->
  <rect x="24" y="26" width="10" height="12" rx="1.5" fill="#d1d5db" stroke="#9ca3af" stroke-width="0.8"/>
  
  <!-- Notepad binding rings -->
  <circle cx="26" cy="27" r="1" fill="#6b7280"/>
  <circle cx="28" cy="27" r="1" fill="#6b7280"/>
  
  <!-- Notepad lines -->
  <line x1="25" y1="30" x2="33" y2="30" stroke="#6b7280" stroke-width="0.6"/>
  <line x1="25" y1="32" x2="33" y2="32" stroke="#6b7280" stroke-width="0.6"/>
  <line x1="25" y1="34" x2="33" y2="34" stroke="#6b7280" stroke-width="0.6"/>
  <line x1="25" y1="36" x2="33" y2="36" stroke="#6b7280" stroke-width="0.6"/>
  
  <!-- Pencil -->
  <line x1="30" y1="35" x2="34" y2="31" stroke="#9ca3af" stroke-width="2" stroke-linecap="round"/>
  <circle cx="34" cy="31" r="0.8" fill="#6b7280"/>
</svg>
